<svg width="24" height="24" viewBox="0 0 24 24" fill="none" xmlns="http://www.w3.org/2000/svg">
<path d="M9.36565 17.0306L20.3234 6.07378C20.3703 6.02697 20.4339 6.00067 20.5001 6.00067C20.5663 6.00067 20.6297 6.02689 20.6766 6.07358C20.7232 6.12043 20.7494 6.18387 20.7494 6.25001C20.7494 6.31626 20.7232 6.3798 20.6763 6.42668L9.17669 17.9263C9.15315 17.9499 9.12514 17.9684 9.09431 17.981C9.06348 17.9936 9.03046 17.9998 8.99718 17.9995C8.9639 17.9991 8.93102 17.9921 8.90049 17.9788C8.86999 17.9656 8.84243 17.9464 8.81943 17.9224C8.8194 17.9224 8.81938 17.9223 8.81936 17.9223L3.31943 12.1724L3.31956 12.1723L3.31009 12.1629C3.28637 12.1394 3.2676 12.1114 3.25489 12.0805C3.24218 12.0496 3.23579 12.0165 3.23609 11.9831C3.2364 11.9497 3.24339 11.9167 3.25666 11.886C3.26993 11.8554 3.28921 11.8277 3.31335 11.8046C3.3375 11.7815 3.36603 11.7635 3.39724 11.7517C3.42846 11.7398 3.46175 11.7343 3.49513 11.7355C3.5285 11.7367 3.5613 11.7446 3.59158 11.7587C3.62186 11.7728 3.64901 11.7928 3.67143 11.8176L3.67128 11.8177L3.68082 11.8277L8.65082 17.0227L9.00418 17.392L9.36565 17.0306Z" fill="white" stroke="white"/>
</svg>
