<svg width="72" height="72" viewBox="0 0 72 72" fill="none" xmlns="http://www.w3.org/2000/svg">
<g clip-path="url(#clip0)">
<path d="M61.9116 18.9318H38.9459C37.1878 18.9322 35.5763 17.9511 34.7703 16.3887L31.5366 10.1568C30.1901 7.55241 27.4984 5.92231 24.5669 5.93359H10.1093C5.77527 5.93555 2.26243 9.4484 2.26047 13.7824V57.6736C2.26243 62.0076 5.77527 65.5205 10.1093 65.5225H61.9116C66.2457 65.5205 69.7585 62.0076 69.7605 57.6736V26.7806C69.7585 22.4466 66.2457 18.9327 61.9116 18.9318V18.9318ZM10.1093 9.08931H24.5669C26.325 9.08784 27.9365 10.0699 28.7424 11.6323L31.9762 17.8638C32.1768 18.2401 32.4025 18.6016 32.6512 18.9475H5.4V13.8138C5.40049 11.211 7.50643 9.09863 10.1093 9.08931ZM66.6209 57.6888C66.6136 60.2868 64.5091 62.3908 61.9116 62.3981H10.1093C7.51183 62.3908 5.40736 60.2868 5.4 57.6888V22.0713H37.4076C37.5616 22.0742 37.7151 22.0531 37.8628 22.0085C38.2273 22.058 38.5937 22.0845 38.9616 22.087H61.9116C64.5091 22.0943 66.6136 24.1983 66.6209 26.7963V57.6888Z" fill="black"/>
<rect width="104.264" height="2" transform="matrix(-0.727812 -0.685777 -0.685777 0.727812 73.4917 72.1282)" fill="#DD042D"/>
</g>
<defs>
<clipPath id="clip0">
<rect width="72" height="72" fill="white"/>
</clipPath>
</defs>
</svg>
