<svg width="15" height="15" viewBox="0 0 15 15" fill="none" xmlns="http://www.w3.org/2000/svg">
<path fill-rule="evenodd" clip-rule="evenodd" d="M0.945624 1.22507C1.07178 1.11386 1.22781 1.04214 1.39436 1.0188C1.56091 0.995471 1.73064 1.02156 1.8825 1.09382L13.9669 6.85319C14.0892 6.91134 14.1925 7.00298 14.2649 7.11748C14.3372 7.23197 14.3756 7.36463 14.3756 7.50007C14.3756 7.63551 14.3372 7.76817 14.2649 7.88266C14.1925 7.99716 14.0892 8.08879 13.9669 8.14694L1.8825 13.9063C1.74106 13.9737 1.58389 14.001 1.42802 13.9855C1.27214 13.9699 1.12349 13.912 0.998159 13.818C0.872829 13.724 0.775594 13.5975 0.71698 13.4523C0.658366 13.307 0.640607 13.1485 0.665624 12.9938L1.55625 7.50007L0.665624 2.00632C0.642476 1.86305 0.656017 1.71624 0.704982 1.57962C0.753947 1.443 0.836738 1.32102 0.945624 1.22507ZM2.43 7.96882L1.615 12.9951L13.1444 7.50007L1.615 2.00507L2.43 7.03132H7.03125C7.15557 7.03132 7.2748 7.08071 7.3627 7.16861C7.45061 7.25652 7.5 7.37575 7.5 7.50007C7.5 7.62439 7.45061 7.74362 7.3627 7.83152C7.2748 7.91943 7.15557 7.96882 7.03125 7.96882H2.43Z" fill="black"/>
</svg>
