<svg width="27" height="27" viewBox="0 0 27 27" fill="none" xmlns="http://www.w3.org/2000/svg">
<path d="M21.375 4.5H5.625C4.38236 4.5 3.375 5.50736 3.375 6.75V10.125C3.375 11.3676 4.38236 12.375 5.625 12.375H21.375C22.6176 12.375 23.625 11.3676 23.625 10.125V6.75C23.625 5.50736 22.6176 4.5 21.375 4.5Z" stroke="white" stroke-width="2" stroke-linecap="round" stroke-linejoin="round"/>
<path d="M21.375 15.75H5.625C4.38236 15.75 3.375 16.7574 3.375 18V21.375C3.375 22.6176 4.38236 23.625 5.625 23.625H21.375C22.6176 23.625 23.625 22.6176 23.625 21.375V18C23.625 16.7574 22.6176 15.75 21.375 15.75Z" stroke="white" stroke-width="2" stroke-linecap="round" stroke-linejoin="round"/>
<path d="M6.75 9V9.01" stroke="white" stroke-width="2" stroke-linecap="round" stroke-linejoin="round"/>
<path d="M6.75 20.25V20.26" stroke="white" stroke-width="2" stroke-linecap="round" stroke-linejoin="round"/>
</svg>
