<svg width="84" height="38" viewBox="0 0 84 38" fill="none" xmlns="http://www.w3.org/2000/svg">
<g clip-path="url(#clip0)">
<path d="M83.9999 34.2745H81.0265V37.2549H83.9999V34.2745Z" fill="#58D7FF"/>
<path d="M26.3922 32.9313C25.675 32.7246 25.1522 32.4714 24.8241 32.1716C24.4989 31.8689 24.3363 31.4964 24.3363 31.0539C24.3363 30.5534 24.5352 30.14 24.933 29.8141C25.3338 29.4852 25.8535 29.3207 26.4924 29.3207C26.9279 29.3207 27.3156 29.4051 27.6553 29.5739C27.998 29.7428 28.2622 29.9756 28.448 30.2725C28.6367 30.5693 28.7312 30.8939 28.7312 31.246H27.8905C27.8905 30.8618 27.7686 30.5606 27.5246 30.3423C27.2807 30.1211 26.9366 30.0105 26.4924 30.0105C26.08 30.0105 25.7577 30.1022 25.5254 30.2856C25.296 30.466 25.1813 30.7178 25.1813 31.0409C25.1813 31.2999 25.2902 31.5196 25.508 31.7001C25.7286 31.8776 26.1018 32.0406 26.6274 32.1891C27.1558 32.3375 27.5682 32.5019 27.8644 32.6824C28.1634 32.86 28.3842 33.0681 28.5264 33.3067C28.6716 33.5454 28.7442 33.8262 28.7442 34.1493C28.7442 34.6644 28.5438 35.0777 28.1432 35.3892C27.7424 35.6977 27.2067 35.852 26.5359 35.852C26.1003 35.852 25.6938 35.769 25.3163 35.6031C24.9388 35.4343 24.647 35.2043 24.4408 34.9133C24.2376 34.6223 24.136 34.2919 24.136 33.9222H24.9766C24.9766 34.3065 25.1174 34.6106 25.3991 34.8348C25.6837 35.0559 26.0626 35.1666 26.5359 35.1666C26.9773 35.1666 27.3156 35.0763 27.5508 34.8959C27.786 34.7154 27.9036 34.4694 27.9036 34.1581C27.9036 33.8466 27.7947 33.6065 27.5769 33.4377C27.3591 33.266 26.9642 33.0971 26.3922 32.9313ZM30.4516 31.0409L30.4734 31.5648C30.819 31.1573 31.285 30.9535 31.8716 30.9535C32.5307 30.9535 32.9793 31.2067 33.2174 31.7132C33.3743 31.4861 33.5775 31.3028 33.8273 31.1631C34.0799 31.0234 34.3775 30.9535 34.7201 30.9535C35.7539 30.9535 36.2795 31.5022 36.2969 32.5995V35.7646H35.4911V32.6475C35.4911 32.3098 35.4141 32.0581 35.2603 31.8921C35.1064 31.7234 34.8479 31.639 34.4849 31.639C34.1859 31.639 33.9376 31.7292 33.7402 31.9097C33.5426 32.0872 33.428 32.3273 33.3961 32.63V35.7646H32.5859V32.6693C32.5859 31.9824 32.2505 31.639 31.5797 31.639C31.0513 31.639 30.6898 31.8645 30.4952 32.3157V35.7646H29.6894V31.0409H30.4516ZM40.426 35.7646C40.3796 35.6715 40.3418 35.5056 40.3128 35.2669C39.9382 35.657 39.491 35.852 38.9713 35.852C38.5067 35.852 38.1248 35.721 37.8258 35.459C37.5295 35.1942 37.3814 34.8595 37.3814 34.4549C37.3814 33.963 37.5673 33.5817 37.939 33.311C38.3135 33.0374 38.8391 32.9006 39.5157 32.9006H40.2997V32.5296C40.2997 32.2473 40.2155 32.0231 40.0471 31.8573C39.8787 31.6884 39.6304 31.604 39.3023 31.604C39.0148 31.604 38.7738 31.6768 38.5792 31.8223C38.3847 31.9678 38.2875 32.1439 38.2875 32.3506H37.4773C37.4773 32.1149 37.56 31.8878 37.7255 31.6695C37.894 31.4483 38.1204 31.2737 38.4051 31.1456C38.6925 31.0176 39.0076 30.9535 39.3502 30.9535C39.8932 30.9535 40.3186 31.0903 40.6264 31.3639C40.9342 31.6346 41.0939 32.0086 41.1055 32.4859V34.6601C41.1055 35.0938 41.1607 35.4387 41.271 35.6948V35.7646H40.426ZM39.0889 35.149C39.3415 35.149 39.5811 35.0835 39.8076 34.9526C40.0341 34.8216 40.1981 34.6514 40.2997 34.4418V33.4726H39.6682C38.6809 33.4726 38.1873 33.7622 38.1873 34.3414C38.1873 34.5946 38.2715 34.7925 38.4398 34.9351C38.6083 35.0777 38.8246 35.149 39.0889 35.149ZM44.6466 31.7656C44.5247 31.7452 44.3926 31.735 44.2503 31.735C43.7218 31.735 43.3632 31.9605 43.1745 32.4117V35.7646H42.3687V31.0409H43.1527L43.1658 31.5866C43.43 31.1646 43.8045 30.9535 44.2895 30.9535C44.4463 30.9535 44.5654 30.9739 44.6466 31.0146V31.7656ZM46.7025 29.897V31.0409H47.5824V31.6651H46.7025V34.5946C46.7025 34.7838 46.7417 34.9264 46.8202 35.0225C46.8985 35.1156 47.0321 35.1622 47.2208 35.1622C47.3137 35.1622 47.4415 35.1447 47.6042 35.1098V35.7646C47.3922 35.8228 47.186 35.852 46.9856 35.852C46.6256 35.852 46.3541 35.7428 46.1711 35.5245C45.9882 35.3063 45.8967 34.9963 45.8967 34.5946V31.6651H45.0387V31.0409H45.8967V29.897H46.7025ZM52.7351 32.9313C52.0179 32.7246 51.4952 32.4714 51.167 32.1716C50.8418 31.8689 50.6792 31.4964 50.6792 31.0539C50.6792 30.5534 50.8782 30.14 51.2759 29.8141C51.6767 29.4852 52.1965 29.3207 52.8353 29.3207C53.2708 29.3207 53.6585 29.4051 53.9982 29.5739C54.3409 29.7428 54.6051 29.9756 54.7909 30.2725C54.9797 30.5693 55.0741 30.8939 55.0741 31.246H54.2334C54.2334 30.8618 54.1115 30.5606 53.8675 30.3423C53.6236 30.1211 53.2795 30.0105 52.8353 30.0105C52.423 30.0105 52.1006 30.1022 51.8683 30.2856C51.6389 30.466 51.5242 30.7178 51.5242 31.0409C51.5242 31.2999 51.6331 31.5196 51.8509 31.7001C52.0716 31.8776 52.4447 32.0406 52.9703 32.1891C53.4988 32.3375 53.9111 32.5019 54.2073 32.6824C54.5064 32.86 54.7271 33.0681 54.8694 33.3067C55.0145 33.5454 55.0872 33.8262 55.0872 34.1493C55.0872 34.6644 54.8868 35.0777 54.4861 35.3892C54.0853 35.6977 53.5496 35.852 52.8789 35.852C52.4432 35.852 52.0368 35.769 51.6592 35.6031C51.2817 35.4343 50.99 35.2043 50.7838 34.9133C50.5805 34.6223 50.4788 34.2919 50.4788 33.9222H51.3195C51.3195 34.3065 51.4604 34.6106 51.742 34.8348C52.0266 35.0559 52.4055 35.1666 52.8789 35.1666C53.3202 35.1666 53.6585 35.0763 53.8937 34.8959C54.1289 34.7154 54.2465 34.4694 54.2465 34.1581C54.2465 33.8466 54.1376 33.6065 53.9199 33.4377C53.7021 33.266 53.3071 33.0971 52.7351 32.9313ZM57.5785 34.5815L58.6762 31.0409H59.5386L57.6439 36.4937C57.3506 37.2796 56.8845 37.6725 56.2458 37.6725L56.0933 37.6594L55.7928 37.6027V36.9478L56.0106 36.9652C56.2835 36.9652 56.4955 36.9099 56.6464 36.7994C56.8004 36.6887 56.9267 36.4865 57.0254 36.1925L57.204 35.7123L55.5227 31.0409H56.4025L57.5785 34.5815ZM63.0057 34.5117C63.0057 34.2934 62.923 34.1245 62.7574 34.0052C62.5948 33.883 62.3088 33.7782 61.8993 33.6909C61.4929 33.6036 61.1691 33.4988 60.9281 33.3765C60.69 33.2543 60.5128 33.1087 60.3966 32.94C60.2834 32.7711 60.2268 32.5703 60.2268 32.3375C60.2268 31.9504 60.3894 31.6229 60.7146 31.3552C61.0428 31.0874 61.4609 30.9535 61.9691 30.9535C62.5033 30.9535 62.936 31.0918 63.2671 31.3683C63.601 31.6448 63.7679 31.9984 63.7679 32.4291H62.9578C62.9578 32.208 62.8634 32.0173 62.6747 31.8573C62.4888 31.6972 62.2536 31.6171 61.9691 31.6171C61.6758 31.6171 61.4464 31.6811 61.2809 31.8092C61.1153 31.9373 61.0326 32.1046 61.0326 32.3113C61.0326 32.5063 61.1095 32.6533 61.2635 32.7522C61.4173 32.8512 61.6946 32.9458 62.0954 33.036C62.499 33.1263 62.8256 33.2339 63.0754 33.3591C63.3251 33.4843 63.5095 33.6356 63.6286 33.8132C63.7505 33.9877 63.8115 34.2017 63.8115 34.4549C63.8115 34.8769 63.6431 35.216 63.3062 35.4721C62.9694 35.7254 62.5324 35.852 61.9952 35.852C61.6177 35.852 61.2838 35.785 60.9934 35.6512C60.703 35.5173 60.4751 35.331 60.3096 35.0923C60.1469 34.8507 60.0656 34.5902 60.0656 34.3108H60.8714C60.8859 34.5815 60.9934 34.7969 61.1937 34.957C61.3971 35.1142 61.6641 35.1927 61.9952 35.1927C62.3001 35.1927 62.544 35.1316 62.7269 35.0093C62.9128 34.8842 63.0057 34.7183 63.0057 34.5117ZM65.9545 29.897V31.0409H66.8343V31.6651H65.9545V34.5946C65.9545 34.7838 65.9936 34.9264 66.0721 35.0225C66.1505 35.1156 66.2841 35.1622 66.4728 35.1622C66.5657 35.1622 66.6935 35.1447 66.8561 35.1098V35.7646C66.6441 35.8228 66.4379 35.852 66.2376 35.852C65.8775 35.852 65.6061 35.7428 65.4231 35.5245C65.2402 35.3063 65.1487 34.9963 65.1487 34.5946V31.6651H64.2906V31.0409H65.1487V29.897H65.9545ZM69.7351 35.852C69.0964 35.852 68.5766 35.6424 68.1759 35.2233C67.7751 34.8012 67.5748 34.2381 67.5748 33.5337V33.3852C67.5748 32.9167 67.6633 32.499 67.8405 32.1323C68.0205 31.7626 68.2702 31.4745 68.5896 31.2678C68.9119 31.0583 69.2604 30.9535 69.635 30.9535C70.2477 30.9535 70.7239 31.1558 71.0637 31.5604C71.4034 31.9649 71.5732 32.5441 71.5732 33.298V33.6341H68.3806C68.3922 34.0998 68.5272 34.4767 68.7856 34.7649C69.047 35.0501 69.378 35.1927 69.7787 35.1927C70.0633 35.1927 70.3043 35.1345 70.5018 35.0181C70.6992 34.9017 70.872 34.7474 71.0201 34.5553L71.5123 34.9395C71.1173 35.5478 70.525 35.852 69.7351 35.852ZM69.635 31.6171C69.3098 31.6171 69.0368 31.7365 68.8161 31.9752C68.5954 32.2109 68.459 32.5427 68.4067 32.9705H70.7674V32.9094C70.7443 32.499 70.6339 32.1818 70.4364 31.9576C70.239 31.7306 69.9718 31.6171 69.635 31.6171ZM73.2676 31.0409L73.2894 31.5648C73.6349 31.1573 74.101 30.9535 74.6878 30.9535C75.3464 30.9535 75.7954 31.2067 76.0333 31.7132C76.1901 31.4861 76.3938 31.3028 76.6436 31.1631C76.8956 31.0234 77.1937 30.9535 77.5364 30.9535C78.5696 30.9535 79.0952 31.5022 79.113 32.5995V35.7646H78.3072V32.6475C78.3072 32.3098 78.2299 32.0581 78.076 31.8921C77.9222 31.7234 77.6642 31.639 77.3007 31.639C77.0019 31.639 76.7536 31.7292 76.5559 31.9097C76.3589 32.0872 76.2436 32.3273 76.2117 32.63V35.7646H75.4022V32.6693C75.4022 31.9824 75.0662 31.639 74.3957 31.639C73.8672 31.639 73.5057 31.8645 73.3112 32.3157V35.7646H72.5053V31.0409H73.2676Z" fill="black"/>
<path d="M0.743336 27.5685H49.8053L22.3009 1.49011V35.0195L0.743336 27.5685ZM0.743336 27.5685L5.20351 15.647L32.3363 17.8823L0.743336 27.5685Z" stroke="black"/>
</g>
<defs>
<clipPath id="clip0">
<rect width="84" height="38" fill="white"/>
</clipPath>
</defs>
</svg>
