<svg width="16" height="16" viewBox="0 0 16 16" fill="none" xmlns="http://www.w3.org/2000/svg">
<path fill-rule="evenodd" clip-rule="evenodd" d="M5.5926 1.98145C6.58978 1.98145 7.39816 2.78982 7.39816 3.787V12.2129C7.39816 13.2101 6.58978 14.0185 5.5926 14.0185H3.78705C2.78987 14.0185 1.98149 13.2101 1.98149 12.2129V3.787C1.98149 2.78982 2.78987 1.98145 3.78705 1.98145H5.5926ZM12.213 1.98145C13.2102 1.98145 14.0185 2.78982 14.0185 3.787V12.2129C14.0185 13.2101 13.2102 14.0185 12.213 14.0185H10.4074C9.41024 14.0185 8.60186 13.2101 8.60186 12.2129V3.787C8.60186 2.78982 9.41024 1.98145 10.4074 1.98145H12.213ZM5.5926 3.18515H3.78705C3.45465 3.18515 3.18519 3.45461 3.18519 3.787V12.2129C3.18519 12.5453 3.45465 12.8148 3.78705 12.8148H5.5926C5.925 12.8148 6.19445 12.5453 6.19445 12.2129V3.787C6.19445 3.45461 5.925 3.18515 5.5926 3.18515ZM12.213 3.18515H10.4074C10.075 3.18515 9.80557 3.45461 9.80557 3.787V12.2129C9.80557 12.5453 10.075 12.8148 10.4074 12.8148H12.213C12.5454 12.8148 12.8148 12.5453 12.8148 12.2129V3.787C12.8148 3.45461 12.5454 3.18515 12.213 3.18515Z" fill="black"/>
</svg>
