<svg width="50" height="50" viewBox="0 0 50 50" fill="none" xmlns="http://www.w3.org/2000/svg">
<path d="M8.33325 0V50H37.4999L49.9999 37.5V0H8.33325Z" fill="#EFEEEE"/>
<path d="M37.5 37.5V50L50 37.5H37.5Z" fill="#ABABAB"/>
<path d="M25 50H37.5V37.5L25 50Z" fill="#DEDEDD"/>
<path d="M0 12.5V27.0833H33.3333V12.5H0Z" fill="#4E95D0"/>
<path d="M7.82915 15.3457C8.45623 15.3457 8.95832 15.4478 9.34373 15.652C9.72707 15.8561 10.025 16.1457 10.2375 16.527C10.4521 16.9061 10.5937 17.3603 10.6687 17.8957C10.7437 18.429 10.7812 19.0249 10.7812 19.6811C10.7812 20.4645 10.7354 21.1457 10.6396 21.7249C10.5437 22.302 10.3791 22.7811 10.1458 23.1561C9.91248 23.5332 9.59998 23.8103 9.20832 23.9936C8.81248 24.179 8.31665 24.2707 7.71665 24.2707H4.87915V15.3457H7.82915ZM7.47915 22.9478C7.79582 22.9478 8.04998 22.8936 8.24165 22.7853C8.43332 22.677 8.5854 22.4978 8.6979 22.2478C8.81248 21.9978 8.88748 21.6686 8.9229 21.2582C8.9604 20.852 8.97915 20.3436 8.97915 19.7353C8.97915 19.227 8.9604 18.7811 8.92915 18.3957C8.89582 18.0124 8.82707 17.6936 8.7229 17.4395C8.61665 17.1853 8.46457 16.9936 8.25832 16.8665C8.05415 16.7374 7.78123 16.6707 7.43957 16.6707H6.67915V22.9478H7.47915Z" fill="white"/>
<path d="M13.1228 17.9396C13.1853 17.3709 13.3249 16.8792 13.5353 16.4709C13.7499 16.0646 14.054 15.7438 14.454 15.5146C14.852 15.2876 15.3915 15.1709 16.0645 15.1709C16.7395 15.1709 17.277 15.2876 17.677 15.5146C18.0749 15.7438 18.3832 16.0646 18.5936 16.4709C18.8082 16.8792 18.9436 17.3709 19.0061 17.9396C19.0686 18.5105 19.0999 19.1334 19.0999 19.8084C19.0999 20.4896 19.0686 21.1167 19.0061 21.6813C18.9436 22.248 18.8061 22.7355 18.5936 23.1438C18.3811 23.5521 18.0749 23.8646 17.677 24.0813C17.277 24.298 16.7395 24.4063 16.0645 24.4063C15.3915 24.4063 14.852 24.2959 14.454 24.0813C14.054 23.8646 13.7478 23.5521 13.5353 23.1438C13.3228 22.7355 13.1853 22.248 13.1228 21.6813C13.0624 21.1167 13.0291 20.4896 13.0291 19.8084C13.0291 19.1355 13.0624 18.5126 13.1228 17.9396ZM14.8749 21.3396C14.904 21.7605 14.9624 22.1021 15.0499 22.3646C15.1374 22.6271 15.2624 22.8188 15.4249 22.9396C15.5874 23.0605 15.802 23.1209 16.0686 23.1209C16.3353 23.1209 16.5499 23.0605 16.7145 22.9396C16.877 22.8167 17.002 22.6271 17.0895 22.3646C17.177 22.1021 17.2353 21.7605 17.2645 21.3396C17.2936 20.9188 17.3082 20.4105 17.3082 19.8105C17.3082 19.2105 17.2915 18.7021 17.2645 18.2855C17.2374 17.8688 17.177 17.5271 17.0895 17.2605C17.002 16.9938 16.877 16.8001 16.7145 16.6813C16.552 16.5584 16.3353 16.498 16.0686 16.498C15.802 16.498 15.5895 16.5584 15.4249 16.6813C15.2624 16.8021 15.1374 16.9938 15.0499 17.2605C14.9624 17.5271 14.904 17.8688 14.8749 18.2855C14.8436 18.7021 14.8311 19.2105 14.8311 19.8105C14.8311 20.4105 14.8436 20.9188 14.8749 21.3396Z" fill="white"/>
<path d="M24.998 16.9416C24.8438 16.6437 24.5626 16.4958 24.1542 16.4958C23.9313 16.4958 23.7459 16.5562 23.598 16.6791C23.4521 16.7999 23.3376 16.9937 23.2542 17.2645C23.1709 17.5353 23.1126 17.8895 23.0792 18.3291C23.0459 18.7666 23.0313 19.302 23.0313 19.9353C23.0313 20.6103 23.0542 21.1562 23.098 21.5728C23.1438 21.9895 23.2167 22.3103 23.3126 22.5416C23.4084 22.7728 23.5292 22.927 23.6751 23.0041C23.8209 23.0833 23.9896 23.1249 24.1813 23.1249C24.3396 23.1249 24.4855 23.0978 24.6251 23.0437C24.7605 22.9895 24.8813 22.8812 24.9813 22.7187C25.0813 22.5562 25.1605 22.327 25.2188 22.0312C25.2751 21.7353 25.3063 21.3458 25.3063 20.8624H27.1042C27.1042 21.3437 27.0667 21.8041 26.9917 22.2374C26.9167 22.6708 26.7771 23.0499 26.573 23.3749C26.3688 23.6978 26.0834 23.952 25.7105 24.1353C25.3396 24.3187 24.8605 24.4124 24.2688 24.4124C23.5938 24.4124 23.0563 24.302 22.6563 24.0874C22.2584 23.8708 21.9501 23.5583 21.7396 23.1499C21.5251 22.7416 21.3896 22.2541 21.3271 21.6874C21.2646 21.1228 21.2334 20.4958 21.2334 19.8145C21.2334 19.1395 21.2646 18.5166 21.3271 17.9458C21.3896 17.377 21.5271 16.8853 21.7396 16.477C21.9521 16.0708 22.2584 15.7499 22.6563 15.5208C23.0563 15.2937 23.5938 15.177 24.2688 15.177C24.9105 15.177 25.4167 15.2812 25.7876 15.4895C26.1584 15.6978 26.4376 15.9624 26.6188 16.2833C26.8001 16.6041 26.9167 16.9499 26.9626 17.3208C27.0063 17.6916 27.0313 18.0395 27.0313 18.3645H25.2292C25.2292 17.7083 25.1521 17.2353 24.998 16.9416Z" fill="white"/>
</svg>
